%
M48
M72
T01C0.0354
T02C0.0360
T03C0.0394
T04C0.0400
T05C0.0433
T06C0.0866
T07C0.1260
%
T01
X6680Y9680
X7680Y9680
X8680Y9680
X9680Y9680
X10680Y9680
X11680Y9680
X12680Y9680
X13680Y9680
X13680Y10680
X14680Y9680
X15680Y9680
X16680Y9680
X17680Y9680
X18680Y9680
X19680Y9680
X20680Y9680
X21680Y9680
X22180Y10680
X22680Y9680
X23680Y9680
X24680Y9680
X25680Y9680
X21680Y12680
X20680Y12180
X16495Y13680
X15680Y12680
X13515Y12180
X14680Y14680
X14680Y15680
X15180Y17180
X13680Y18680
X13680Y19680
X12680Y20680
X12180Y21680
X9680Y23680
X10680Y24180
X8680Y23180
X6680Y21680
X5680Y22180
X4180Y22680
X8680Y20680
X8180Y17680
X10680Y17180
X12180Y17180
X10680Y15680
X11680Y14680
X9680Y11680
X3680Y18180
X17680Y18180
X18180Y16180
X21680Y19180
X23180Y18680
X25180Y19180
X26680Y20680
X28180Y20180
X29430Y20180
X29430Y21680
X27180Y23680
X25180Y25680
X23141Y27302
X22680Y29042
X23280Y31680
X27180Y30180
X29430Y28180
X29430Y26680
X30680Y25680
X30530Y24330
X32180Y25680
X33680Y23680
X33680Y22680
X33680Y21680
X34680Y18180
X33680Y17180
X33680Y16180
X33680Y15180
X30530Y17830
X29430Y15180
X29430Y13680
X27180Y14180
X27180Y17180
X21180Y21180
X22680Y23680
X30530Y30830
X31180Y32680
X33680Y30180
X33680Y29180
X33680Y28180
X36680Y33680
X35680Y10680
X33180Y7180
X35180Y5101
X37062Y5274
X37062Y7007
X29180Y5180
X27680Y4680
X26680Y2680
X24680Y4330
T02
X35435Y14402
X35435Y15336
X35435Y16224
X35435Y17158
X35435Y20902
X35435Y21836
X35435Y22724
X35435Y23658
X35435Y27402
X35435Y28336
X35435Y29224
X35435Y30158
T03
X26180Y6680
X26180Y3680
X22180Y3680
X22180Y6680
X18680Y6680
X18680Y3680
X14680Y3680
X13180Y3680
X13180Y6680
X14680Y6680
X9180Y6680
X7680Y6680
X7680Y3680
X9180Y3680
X3680Y3680
X3680Y6680
T04
X3680Y19180
X3680Y20180
X4680Y20180
X4680Y19180
X4680Y21180
X3680Y21180
X26380Y37110
X26380Y38250
X27480Y38250
X27480Y37110
X29380Y37110
X29380Y38250
X30480Y38250
X30480Y37110
X31880Y37110
X32980Y37110
X32980Y38250
X31880Y38250
T05
X36419Y29666
X36419Y27894
X36419Y23166
X36419Y21394
X36419Y16666
X36419Y14894
T06
X36380Y13497
X36380Y18063
X36380Y19997
X36380Y24563
X36380Y26497
X36380Y31063
T07
X2180Y1680
X2180Y9680
X2152Y9680
X2152Y35271
X2180Y37780
X36830Y37780
X36798Y35271
X36798Y9680
X36830Y9680
X36830Y1680
M30
